<svg width="68" height="51" viewBox="0 0 68 51" fill="none" xmlns="http://www.w3.org/2000/svg">
<path d="M4.58898 50.4904H15.2966V24.4861L0 13.0137V45.9014C0 48.4406 2.05739 50.4904 4.58898 50.4904Z" fill="#4285F4"/>
<path d="M52.0098 50.4904H62.7174C65.2566 50.4904 67.3064 48.433 67.3064 45.9014V13.0137L52.0098 24.4861" fill="#34A853"/>
<path d="M52.0098 4.602V24.4876L67.3064 13.0151V6.89649C67.3064 1.22145 60.8283 -2.01378 56.2928 1.38971" fill="#FBBC04"/>
<path d="M15.2969 24.4852V4.59961L33.6528 18.3666L52.0087 4.59961V24.4852L33.6528 38.2522" fill="#EA4335"/>
<path d="M0 6.89649V13.0151L15.2966 24.4876V4.602L11.0136 1.38971C6.47047 -2.01378 0 1.22145 0 6.89649Z" fill="#C5221F"/>
</svg>
