<svg width="52" height="52" viewBox="0 0 52 52" fill="none" xmlns="http://www.w3.org/2000/svg">
<g clip-path="url(#clip0_2790_16637)">
<path d="M39.1564 0H11.9907C5.37166 0 0.00585938 5.3658 0.00585938 11.9849V39.1505C0.00585938 45.7696 5.37166 51.1354 11.9907 51.1354H39.1564C45.7755 51.1354 51.1413 45.7696 51.1413 39.1505V11.9849C51.1413 5.3658 45.7755 0 39.1564 0Z" fill="url(#paint0_radial_2790_16637)"/>
<path d="M39.1564 0H11.9907C5.37166 0 0.00585938 5.3658 0.00585938 11.9849V39.1505C0.00585938 45.7696 5.37166 51.1354 11.9907 51.1354H39.1564C45.7755 51.1354 51.1413 45.7696 51.1413 39.1505V11.9849C51.1413 5.3658 45.7755 0 39.1564 0Z" fill="url(#paint1_radial_2790_16637)"/>
<path d="M25.5791 5.59375C20.1544 5.59375 19.4734 5.61752 17.3429 5.7144C15.2164 5.81187 13.7648 6.14845 12.4948 6.64243C11.1809 7.15258 10.0665 7.83512 8.9563 8.94572C7.84511 10.0561 7.16257 11.1705 6.65081 12.4838C6.15544 13.7542 5.81847 15.2064 5.72279 17.3319C5.62751 19.4626 5.60254 20.1438 5.60254 25.5687C5.60254 30.9937 5.62651 31.6724 5.72319 33.8029C5.82106 35.9294 6.15764 37.381 6.65121 38.651C7.16177 39.9649 7.84431 41.0793 8.9549 42.1895C10.0649 43.3007 11.1793 43.9849 12.4922 44.495C13.7632 44.989 15.215 45.3256 17.3411 45.423C19.4718 45.5199 20.1522 45.5437 25.5767 45.5437C31.002 45.5437 31.6808 45.5199 33.8113 45.423C35.9378 45.3256 37.391 44.989 38.662 44.495C39.9753 43.9849 41.0881 43.3007 42.1979 42.1895C43.3091 41.0793 43.9914 39.9649 44.5034 38.6516C44.9944 37.381 45.3315 35.929 45.4314 33.8033C45.5271 31.6728 45.5521 30.9937 45.5521 25.5687C45.5521 20.1438 45.5271 19.463 45.4314 17.3323C45.3315 15.2058 44.9944 13.7544 44.5034 12.4844C43.9914 11.1705 43.3091 10.0561 42.1979 8.94572C41.0869 7.83472 39.9757 7.15218 38.6608 6.64262C37.3874 6.14845 35.935 5.81167 33.8085 5.7144C31.6778 5.61752 30.9995 5.59375 25.5729 5.59375H25.5791ZM23.7872 9.1934C24.3191 9.1926 24.9125 9.1934 25.5791 9.1934C30.9126 9.1934 31.5446 9.21258 33.6507 9.30826C35.5982 9.39735 36.6553 9.72273 37.3594 9.99619C38.2916 10.3581 38.9562 10.791 39.6549 11.4903C40.354 12.1894 40.7867 12.8552 41.1496 13.7874C41.4231 14.4905 41.7489 15.5476 41.8376 17.4951C41.9332 19.6009 41.954 20.2333 41.954 25.5641C41.954 30.895 41.9332 31.5276 41.8376 33.6331C41.7485 35.5807 41.4231 36.6377 41.1496 37.341C40.7877 38.2733 40.354 38.937 39.6549 39.6357C38.9558 40.3349 38.292 40.7675 37.3594 41.1297C36.6561 41.4043 35.5982 41.7289 33.6507 41.818C31.545 41.9137 30.9126 41.9344 25.5791 41.9344C20.2454 41.9344 19.6132 41.9137 17.5077 41.818C15.5602 41.7281 14.5031 41.4027 13.7984 41.1293C12.8664 40.7671 12.2004 40.3345 11.5013 39.6353C10.8022 38.9362 10.3695 38.2721 10.0066 37.3394C9.73312 36.6361 9.40733 35.5791 9.31864 33.6315C9.22297 31.5258 9.20379 30.8934 9.20379 25.5591C9.20379 20.2249 9.22297 19.5959 9.31864 17.4901C9.40773 15.5426 9.73312 14.4855 10.0066 13.7814C10.3687 12.8492 10.8022 12.1834 11.5015 11.4843C12.2008 10.7852 12.8664 10.3523 13.7986 9.9896C14.5027 9.71494 15.5602 9.39035 17.5077 9.30087C19.3504 9.21757 20.0645 9.1926 23.7872 9.18841V9.1934ZM36.2416 12.51C34.9183 12.51 33.8447 13.5827 33.8447 14.9062C33.8447 16.2295 34.9183 17.3032 36.2416 17.3032C37.565 17.3032 38.6386 16.2295 38.6386 14.9062C38.6386 13.5829 37.565 12.5092 36.2416 12.5092V12.51ZM25.5791 15.3107C19.9143 15.3107 15.3213 19.9037 15.3213 25.5687C15.3213 31.2338 19.9143 35.8246 25.5791 35.8246C31.2441 35.8246 35.8355 31.2338 35.8355 25.5687C35.8355 19.9039 31.2437 15.3107 25.5787 15.3107H25.5791ZM25.5791 18.9103C29.2563 18.9103 32.2375 21.8912 32.2375 25.5687C32.2375 29.2459 29.2563 32.2271 25.5791 32.2271C21.9019 32.2271 18.9209 29.2459 18.9209 25.5687C18.9209 21.8912 21.9017 18.9103 25.5791 18.9103Z" fill="white"/>
</g>
<defs>
<radialGradient id="paint0_radial_2790_16637" cx="0" cy="0" r="1" gradientUnits="userSpaceOnUse" gradientTransform="translate(13.5887 55.0738) rotate(-90) scale(50.679 47.1355)">
<stop stop-color="#FFDD55"/>
<stop offset="0.1" stop-color="#FFDD55"/>
<stop offset="0.5" stop-color="#FF543E"/>
<stop offset="1" stop-color="#C837AB"/>
</radialGradient>
<radialGradient id="paint1_radial_2790_16637" cx="0" cy="0" r="1" gradientUnits="userSpaceOnUse" gradientTransform="translate(-8.55952 3.68355) rotate(78.681) scale(22.6538 93.3796)">
<stop stop-color="#3771C8"/>
<stop offset="0.128" stop-color="#3771C8"/>
<stop offset="1" stop-color="#6600FF" stop-opacity="0"/>
</radialGradient>
<clipPath id="clip0_2790_16637">
<rect width="51.1354" height="51.1354" fill="white"/>
</clipPath>
</defs>
</svg>
