<svg width="50" height="51" viewBox="0 0 50 51" fill="none" xmlns="http://www.w3.org/2000/svg">
<path d="M17.0092 1.38536C22.5337 -0.511218 28.541 -0.459054 34.0317 1.53317C37.0472 2.662 39.81 4.37533 42.1615 6.5748C41.3625 7.42972 40.5195 8.22871 39.7046 9.05966C38.1545 10.607 36.6058 12.1491 35.0584 13.6858C33.5158 12.2106 31.6498 11.1162 29.6093 10.4899C26.9981 9.70141 24.2202 9.64743 21.5803 10.3338C18.9405 11.0202 16.5407 12.4205 14.6442 14.3809C12.9888 16.065 11.7352 18.1011 10.9768 20.3374L2.69531 13.9255C5.6596 8.04719 10.7921 3.55072 17.0092 1.38536Z" fill="#E33629"/>
<path d="M0.495363 20.2719C0.940485 18.0659 1.67948 15.9295 2.69259 13.9199L10.9741 20.3478C9.89075 23.5382 9.89075 26.997 10.9741 30.1874C8.21494 32.318 5.45443 34.4593 2.69259 36.6113C0.156394 31.5629 -0.617101 25.8109 0.495363 20.2719Z" fill="#F8BD00"/>
<path d="M25.2713 20.5371H49.0493C49.8626 24.9992 49.6426 29.5884 48.4061 33.9522C47.2685 37.965 45.0586 41.5919 42.0142 44.4429C39.3415 42.3575 36.6569 40.2882 33.9843 38.2028C35.3093 37.309 36.4403 36.157 37.3093 34.8156C38.1784 33.4742 38.7677 31.9712 39.0419 30.3967H25.2713C25.2673 27.1128 25.2713 23.825 25.2713 20.5371Z" fill="#587DBD"/>
<path d="M2.69238 36.6114C5.45423 34.4807 8.21474 32.3394 10.9739 30.1875C12.0414 33.3203 14.0716 36.0357 16.7746 37.9457C18.4605 39.1372 20.3762 39.9645 22.3995 40.3746C24.3932 40.7453 26.4382 40.7453 28.4319 40.3746C30.4197 40.0381 32.3153 39.2897 33.9968 38.1774C36.6695 40.2628 39.3541 42.3322 42.0267 44.4175C39.1019 47.0771 35.5366 48.9313 31.6798 49.7987C27.4228 50.7995 22.9864 50.7515 18.7521 49.6589C15.4031 48.7647 12.275 47.1884 9.5637 45.0288C6.69397 42.7504 4.35011 39.8791 2.69238 36.6114Z" fill="#319F43"/>
</svg>
