<svg width="28" height="30" viewBox="0 0 28 30" fill="none" xmlns="http://www.w3.org/2000/svg">
<path d="M14.905 12.4214C16.963 12.4214 18.6313 10.753 18.6313 8.69506C18.6313 6.63708 16.963 4.96875 14.905 4.96875C12.847 4.96875 11.1787 6.63708 11.1787 8.69506C11.1787 10.753 12.847 12.4214 14.905 12.4214Z" stroke="black" stroke-width="1.86315"/>
<path d="M4.96875 22.359C4.96875 21.0413 5.49221 19.7776 6.42396 18.8458C7.35572 17.9141 8.61946 17.3906 9.93716 17.3906H19.874C21.1917 17.3906 22.4554 17.9141 23.3872 18.8458C24.3189 19.7776 24.8424 21.0413 24.8424 22.359C24.8424 23.0179 24.5807 23.6498 24.1148 24.1156C23.6489 24.5815 23.017 24.8432 22.3582 24.8432H7.45296C6.7941 24.8432 6.16224 24.5815 5.69636 24.1156C5.23048 23.6498 4.96875 23.0179 4.96875 22.359Z" stroke="black" stroke-width="1.86315" stroke-linejoin="round"/>
</svg>
