<svg width="52" height="51" viewBox="0 0 52 51" fill="none" xmlns="http://www.w3.org/2000/svg">
<rect width="51.043" height="50.1296" rx="10" fill="#60D669"/>
<g clip-path="url(#clip0_2790_16632)">
<path d="M6.11815 24.822C6.1172 28.254 7.01394 31.605 8.71908 34.5587L5.95508 44.6505L16.2828 41.9426C19.1393 43.4976 22.3398 44.3124 25.5922 44.3126H25.6007C36.3374 44.3126 45.0773 35.5759 45.0819 24.8374C45.0839 19.6338 43.0593 14.7406 39.3808 11.0593C35.703 7.3783 30.8116 5.35003 25.5999 5.34766C14.862 5.34766 6.12274 14.0839 6.11831 24.822" fill="url(#paint0_linear_2790_16632)"/>
<path d="M5.42526 24.8135C5.42416 28.3689 6.35304 31.8398 8.11897 34.8993L5.25586 45.3529L15.9539 42.5479C18.9015 44.155 22.2203 45.0023 25.5973 45.0036H25.606C36.7279 45.0036 45.7818 35.9526 45.7865 24.8296C45.7884 19.4391 43.6909 14.37 39.8811 10.5568C36.0707 6.7441 31.0044 4.64284 25.606 4.64062C14.4823 4.64062 5.4297 13.6904 5.42526 24.8135ZM11.7963 34.3724L11.3969 33.7383C9.71771 31.0683 8.83142 27.9829 8.83269 24.8148C8.83617 15.5695 16.3603 8.04773 25.6124 8.04773C30.0929 8.04963 34.3037 9.79625 37.4708 12.9652C40.6377 16.1345 42.3803 20.3475 42.3792 24.8284C42.3751 34.0736 34.8508 41.5963 25.606 41.5963H25.5994C22.5892 41.5948 19.637 40.7864 17.0623 39.2587L16.4496 38.8953L10.1012 40.5598L11.7963 34.3724Z" fill="url(#paint1_linear_2790_16632)"/>
<path d="M20.56 16.383C20.1823 15.5434 19.7847 15.5265 19.4255 15.5117C19.1313 15.4991 18.795 15.5 18.4591 15.5C18.1228 15.5 17.5764 15.6265 17.1146 16.1308C16.6523 16.6355 15.3496 17.8552 15.3496 20.336C15.3496 22.8167 17.1565 25.2144 17.4084 25.5511C17.6606 25.8873 20.8968 31.141 26.022 33.1622C30.2815 34.8418 31.1483 34.5078 32.0728 34.4235C32.9974 34.3396 35.0562 33.2041 35.4762 32.0267C35.8966 30.8494 35.8966 29.8403 35.7706 29.6294C35.6445 29.4193 35.3083 29.2931 34.804 29.041C34.2997 28.789 31.8206 27.569 31.3584 27.4007C30.8961 27.2325 30.56 27.1486 30.2237 27.6535C29.8874 28.1576 28.9218 29.2931 28.6275 29.6294C28.3335 29.9664 28.0392 30.0084 27.5351 29.7562C27.0305 29.5032 25.4066 28.9714 23.48 27.2537C21.981 25.9172 20.969 24.2667 20.6748 23.7618C20.3806 23.2577 20.6433 22.9844 20.8961 22.7332C21.1227 22.5072 21.4005 22.1444 21.6529 21.85C21.9043 21.5555 21.9882 21.3455 22.1564 21.0092C22.3247 20.6726 22.2405 20.3781 22.1146 20.1259C21.9882 19.8737 21.0084 17.3799 20.56 16.383Z" fill="white"/>
</g>
<defs>
<linearGradient id="paint0_linear_2790_16632" x1="1962.29" y1="3935.63" x2="1962.29" y2="5.34766" gradientUnits="userSpaceOnUse">
<stop stop-color="#1FAF38"/>
<stop offset="1" stop-color="#60D669"/>
</linearGradient>
<linearGradient id="paint1_linear_2790_16632" x1="2031.79" y1="4075.86" x2="2031.79" y2="4.64062" gradientUnits="userSpaceOnUse">
<stop stop-color="#F9F9F9"/>
<stop offset="1" stop-color="white"/>
</linearGradient>
<clipPath id="clip0_2790_16632">
<rect width="40.5306" height="40.8473" fill="white" transform="translate(5.25586 4.64062)"/>
</clipPath>
</defs>
</svg>
